<mxfile host="app.diagrams.net" agent="Mozilla/5.0 (Windows NT 10.0; Win64; x64) AppleWebKit/537.36 (KHTML, like Gecko) Chrome/134.0.0.0 Safari/537.36" version="26.2.13" pages="3">
  <diagram name="Production 全流程" id="ZbFaUCpYVwPZRvXz7Jxa">
    <mxGraphModel dx="1259" dy="662" grid="1" gridSize="10" guides="1" tooltips="1" connect="1" arrows="1" fold="1" page="0" pageScale="1" pageWidth="827" pageHeight="1169" math="0" shadow="0">
      <root>
        <mxCell id="0" />
        <mxCell id="1" parent="0" />
        <mxCell id="Holn0UjStWFtkLR8ibo9-8" style="edgeStyle=orthogonalEdgeStyle;rounded=0;orthogonalLoop=1;jettySize=auto;html=1;exitX=1;exitY=0.5;exitDx=0;exitDy=0;" edge="1" parent="1" source="Holn0UjStWFtkLR8ibo9-1" target="Holn0UjStWFtkLR8ibo9-4">
          <mxGeometry relative="1" as="geometry" />
        </mxCell>
        <mxCell id="Holn0UjStWFtkLR8ibo9-1" value="$ run_QXEDTinkerSignal.sh" style="rounded=0;whiteSpace=wrap;html=1;verticalAlign=top;fillColor=#d5e8d4;strokeColor=#82b366;" vertex="1" parent="1">
          <mxGeometry x="80" y="240" width="200" height="200" as="geometry" />
        </mxCell>
        <mxCell id="Holn0UjStWFtkLR8ibo9-2" value="设置外部变量，Python虚拟环境" style="rounded=0;whiteSpace=wrap;html=1;align=left;fillColor=#f5f5f5;fontColor=#333333;strokeColor=#666666;" vertex="1" parent="1">
          <mxGeometry x="90" y="280" width="180" height="60" as="geometry" />
        </mxCell>
        <mxCell id="Holn0UjStWFtkLR8ibo9-3" value="进入 ./production" style="rounded=0;whiteSpace=wrap;html=1;align=left;fillColor=#f5f5f5;fontColor=#333333;strokeColor=#666666;" vertex="1" parent="1">
          <mxGeometry x="90" y="360" width="180" height="30" as="geometry" />
        </mxCell>
        <mxCell id="Holn0UjStWFtkLR8ibo9-10" style="edgeStyle=orthogonalEdgeStyle;rounded=0;orthogonalLoop=1;jettySize=auto;html=1;exitX=1;exitY=0.5;exitDx=0;exitDy=0;" edge="1" parent="1" source="Holn0UjStWFtkLR8ibo9-4" target="Holn0UjStWFtkLR8ibo9-6">
          <mxGeometry relative="1" as="geometry" />
        </mxCell>
        <mxCell id="Holn0UjStWFtkLR8ibo9-4" value="main.py" style="rounded=0;whiteSpace=wrap;html=1;verticalAlign=top;fillColor=#d5e8d4;strokeColor=#82b366;" vertex="1" parent="1">
          <mxGeometry x="320" y="240" width="200" height="200" as="geometry" />
        </mxCell>
        <mxCell id="Holn0UjStWFtkLR8ibo9-6" value="production_main.so" style="rounded=0;whiteSpace=wrap;html=1;verticalAlign=top;fillColor=#f5f5f5;fontColor=#333333;strokeColor=#666666;" vertex="1" parent="1">
          <mxGeometry x="560" y="240" width="200" height="200" as="geometry" />
        </mxCell>
        <mxCell id="Holn0UjStWFtkLR8ibo9-7" value="# pre_main (date, 配置文件)&lt;div&gt;# main&amp;nbsp;&lt;span style=&quot;background-color: transparent; color: light-dark(rgb(51, 51, 51), rgb(193, 193, 193));&quot;&gt;(date, 配置文件)&lt;/span&gt;&lt;/div&gt;&lt;div&gt;# after_main&amp;nbsp;&lt;span style=&quot;background-color: transparent; color: light-dark(rgb(51, 51, 51), rgb(193, 193, 193));&quot;&gt;(date, 配置文件)&lt;/span&gt;&lt;/div&gt;" style="rounded=0;whiteSpace=wrap;html=1;align=left;fillColor=#f5f5f5;fontColor=#333333;strokeColor=#666666;" vertex="1" parent="1">
          <mxGeometry x="570" y="310" width="180" height="60" as="geometry" />
        </mxCell>
        <mxCell id="Holn0UjStWFtkLR8ibo9-14" style="edgeStyle=orthogonalEdgeStyle;rounded=0;orthogonalLoop=1;jettySize=auto;html=1;exitX=0.5;exitY=0;exitDx=0;exitDy=0;dashed=1;shape=link;" edge="1" parent="1" source="Holn0UjStWFtkLR8ibo9-11" target="Holn0UjStWFtkLR8ibo9-12">
          <mxGeometry relative="1" as="geometry" />
        </mxCell>
        <mxCell id="Holn0UjStWFtkLR8ibo9-11" value="QXEDTinker_Production.json" style="rounded=0;whiteSpace=wrap;html=1;verticalAlign=top;fillColor=#ffe6cc;strokeColor=#d79b00;" vertex="1" parent="1">
          <mxGeometry x="80" y="480" width="200" height="200" as="geometry" />
        </mxCell>
        <mxCell id="Holn0UjStWFtkLR8ibo9-12" value="&lt;span style=&quot;text-align: left;&quot;&gt;python main.py 配置 选项 日期&lt;/span&gt;" style="rounded=0;whiteSpace=wrap;html=1;fillColor=#dae8fc;strokeColor=#6c8ebf;" vertex="1" parent="1">
          <mxGeometry x="90" y="400" width="180" height="30" as="geometry" />
        </mxCell>
      </root>
    </mxGraphModel>
  </diagram>
  <diagram id="kGvRejj9dLNZvSEhZGKv" name="data_reader">
    <mxGraphModel dx="1999" dy="1030" grid="1" gridSize="10" guides="1" tooltips="1" connect="1" arrows="1" fold="1" page="0" pageScale="1" pageWidth="827" pageHeight="1169" math="0" shadow="0">
      <root>
        <mxCell id="0" />
        <mxCell id="1" parent="0" />
        <mxCell id="V9FJqCmlLuENBh-RQ5aB-5" style="edgeStyle=orthogonalEdgeStyle;rounded=0;orthogonalLoop=1;jettySize=auto;html=1;exitX=1;exitY=0.5;exitDx=0;exitDy=0;entryX=0;entryY=0.5;entryDx=0;entryDy=0;" edge="1" parent="1" source="V9FJqCmlLuENBh-RQ5aB-2" target="V9FJqCmlLuENBh-RQ5aB-3">
          <mxGeometry relative="1" as="geometry" />
        </mxCell>
        <mxCell id="V9FJqCmlLuENBh-RQ5aB-6" style="edgeStyle=orthogonalEdgeStyle;rounded=0;orthogonalLoop=1;jettySize=auto;html=1;exitX=1;exitY=0.5;exitDx=0;exitDy=0;entryX=0;entryY=0.5;entryDx=0;entryDy=0;" edge="1" parent="1" source="V9FJqCmlLuENBh-RQ5aB-2" target="V9FJqCmlLuENBh-RQ5aB-4">
          <mxGeometry relative="1" as="geometry" />
        </mxCell>
        <mxCell id="V9FJqCmlLuENBh-RQ5aB-2" value="reader分为两类" style="rounded=0;whiteSpace=wrap;html=1;" vertex="1" parent="1">
          <mxGeometry x="-520" y="-160" width="120" height="40" as="geometry" />
        </mxCell>
        <mxCell id="V9FJqCmlLuENBh-RQ5aB-3" value="FactorReader" style="rounded=0;whiteSpace=wrap;html=1;verticalAlign=top;fontStyle=1" vertex="1" parent="1">
          <mxGeometry x="-300" y="-330" width="920" height="560" as="geometry" />
        </mxCell>
        <mxCell id="V9FJqCmlLuENBh-RQ5aB-4" value="StockReader" style="rounded=0;whiteSpace=wrap;html=1;verticalAlign=top;fontStyle=1" vertex="1" parent="1">
          <mxGeometry x="-320" y="400" width="360" height="280" as="geometry" />
        </mxCell>
        <mxCell id="V9FJqCmlLuENBh-RQ5aB-12" style="edgeStyle=orthogonalEdgeStyle;rounded=0;orthogonalLoop=1;jettySize=auto;html=1;exitX=1;exitY=0.5;exitDx=0;exitDy=0;" edge="1" parent="1" source="V9FJqCmlLuENBh-RQ5aB-7" target="V9FJqCmlLuENBh-RQ5aB-10">
          <mxGeometry relative="1" as="geometry" />
        </mxCell>
        <mxCell id="V9FJqCmlLuENBh-RQ5aB-13" style="edgeStyle=orthogonalEdgeStyle;rounded=0;orthogonalLoop=1;jettySize=auto;html=1;exitX=1;exitY=0.5;exitDx=0;exitDy=0;" edge="1" parent="1" source="V9FJqCmlLuENBh-RQ5aB-7" target="V9FJqCmlLuENBh-RQ5aB-11">
          <mxGeometry relative="1" as="geometry" />
        </mxCell>
        <mxCell id="V9FJqCmlLuENBh-RQ5aB-7" value="today_reader" style="rounded=0;whiteSpace=wrap;html=1;" vertex="1" parent="1">
          <mxGeometry x="-290" y="-250" width="120" height="40" as="geometry" />
        </mxCell>
        <mxCell id="V9FJqCmlLuENBh-RQ5aB-14" style="edgeStyle=orthogonalEdgeStyle;rounded=0;orthogonalLoop=1;jettySize=auto;html=1;exitX=1;exitY=0.5;exitDx=0;exitDy=0;" edge="1" parent="1" source="V9FJqCmlLuENBh-RQ5aB-8" target="V9FJqCmlLuENBh-RQ5aB-9">
          <mxGeometry relative="1" as="geometry" />
        </mxCell>
        <mxCell id="V9FJqCmlLuENBh-RQ5aB-8" value="history_reader" style="rounded=0;whiteSpace=wrap;html=1;" vertex="1" parent="1">
          <mxGeometry x="-290" y="-140" width="120" height="40" as="geometry" />
        </mxCell>
        <mxCell id="V9FJqCmlLuENBh-RQ5aB-9" value="DBFactorReader" style="rounded=0;whiteSpace=wrap;html=1;" vertex="1" parent="1">
          <mxGeometry x="-110" y="-140" width="120" height="40" as="geometry" />
        </mxCell>
        <mxCell id="V9FJqCmlLuENBh-RQ5aB-10" value="DBFactorReader" style="rounded=0;whiteSpace=wrap;html=1;" vertex="1" parent="1">
          <mxGeometry x="-110" y="-290" width="120" height="40" as="geometry" />
        </mxCell>
        <mxCell id="V9FJqCmlLuENBh-RQ5aB-11" value="AliveFactorReceiver" style="rounded=0;whiteSpace=wrap;html=1;" vertex="1" parent="1">
          <mxGeometry x="-110" y="-220" width="120" height="40" as="geometry" />
        </mxCell>
        <mxCell id="V9FJqCmlLuENBh-RQ5aB-22" value="" style="shape=process;whiteSpace=wrap;html=1;backgroundOutline=1;size=0.017543859649122806;" vertex="1" parent="1">
          <mxGeometry x="20" y="-300" width="570" height="60" as="geometry" />
        </mxCell>
        <mxCell id="V9FJqCmlLuENBh-RQ5aB-15" value="DBIP" style="rounded=0;whiteSpace=wrap;html=1;" vertex="1" parent="1">
          <mxGeometry x="45" y="-285" width="50" height="30" as="geometry" />
        </mxCell>
        <mxCell id="V9FJqCmlLuENBh-RQ5aB-16" value="DBPort" style="rounded=0;whiteSpace=wrap;html=1;" vertex="1" parent="1">
          <mxGeometry x="115" y="-285" width="50" height="30" as="geometry" />
        </mxCell>
        <mxCell id="V9FJqCmlLuENBh-RQ5aB-17" value="USERNAME" style="rounded=0;whiteSpace=wrap;html=1;" vertex="1" parent="1">
          <mxGeometry x="185" y="-285" width="80" height="30" as="geometry" />
        </mxCell>
        <mxCell id="V9FJqCmlLuENBh-RQ5aB-18" value="PASSWORD" style="rounded=0;whiteSpace=wrap;html=1;" vertex="1" parent="1">
          <mxGeometry x="285" y="-285" width="80" height="30" as="geometry" />
        </mxCell>
        <mxCell id="V9FJqCmlLuENBh-RQ5aB-19" value="因子列表" style="rounded=0;whiteSpace=wrap;html=1;" vertex="1" parent="1">
          <mxGeometry x="385" y="-285" width="80" height="30" as="geometry" />
        </mxCell>
        <mxCell id="V9FJqCmlLuENBh-RQ5aB-20" value="并发数" style="rounded=0;whiteSpace=wrap;html=1;" vertex="1" parent="1">
          <mxGeometry x="485" y="-285" width="80" height="30" as="geometry" />
        </mxCell>
        <mxCell id="V9FJqCmlLuENBh-RQ5aB-23" value="" style="shape=process;whiteSpace=wrap;html=1;backgroundOutline=1;size=0.017543859649122806;" vertex="1" parent="1">
          <mxGeometry x="20" y="-230" width="570" height="60" as="geometry" />
        </mxCell>
        <mxCell id="V9FJqCmlLuENBh-RQ5aB-24" value="DBIP" style="rounded=0;whiteSpace=wrap;html=1;" vertex="1" parent="1">
          <mxGeometry x="45" y="-215" width="50" height="30" as="geometry" />
        </mxCell>
        <mxCell id="V9FJqCmlLuENBh-RQ5aB-25" value="SERVER IP" style="rounded=0;whiteSpace=wrap;html=1;" vertex="1" parent="1">
          <mxGeometry x="115" y="-215" width="75" height="30" as="geometry" />
        </mxCell>
        <mxCell id="V9FJqCmlLuENBh-RQ5aB-30" value="SERVER PORT" style="rounded=0;whiteSpace=wrap;html=1;" vertex="1" parent="1">
          <mxGeometry x="210" y="-215" width="110" height="30" as="geometry" />
        </mxCell>
        <mxCell id="V9FJqCmlLuENBh-RQ5aB-31" value="因子列表" style="rounded=0;whiteSpace=wrap;html=1;" vertex="1" parent="1">
          <mxGeometry x="340" y="-215" width="75" height="30" as="geometry" />
        </mxCell>
        <mxCell id="V9FJqCmlLuENBh-RQ5aB-32" value="并发数" style="rounded=0;whiteSpace=wrap;html=1;" vertex="1" parent="1">
          <mxGeometry x="430" y="-215" width="80" height="30" as="geometry" />
        </mxCell>
        <mxCell id="V9FJqCmlLuENBh-RQ5aB-33" value="&lt;b&gt;factor meta @DB&lt;/b&gt;" style="rounded=0;whiteSpace=wrap;html=1;verticalAlign=top;" vertex="1" parent="1">
          <mxGeometry x="880" y="-320" width="320" height="370" as="geometry" />
        </mxCell>
        <mxCell id="V9FJqCmlLuENBh-RQ5aB-79" value="" style="rounded=0;whiteSpace=wrap;html=1;fillColor=#ffe6cc;strokeColor=#d79b00;" vertex="1" parent="1">
          <mxGeometry x="900" y="-275" width="280" height="275" as="geometry" />
        </mxCell>
        <mxCell id="V9FJqCmlLuENBh-RQ5aB-60" value="MappedName" style="rounded=0;whiteSpace=wrap;html=1;fillColor=#f5f5f5;fontColor=#333333;strokeColor=#666666;" vertex="1" parent="1">
          <mxGeometry x="920" y="-260" width="120" height="30" as="geometry" />
        </mxCell>
        <mxCell id="V9FJqCmlLuENBh-RQ5aB-61" value="IND_A477" style="rounded=0;whiteSpace=wrap;html=1;" vertex="1" parent="1">
          <mxGeometry x="1040" y="-260" width="120" height="30" as="geometry" />
        </mxCell>
        <mxCell id="V9FJqCmlLuENBh-RQ5aB-62" value="IsValid" style="rounded=0;whiteSpace=wrap;html=1;fillColor=#f5f5f5;fontColor=#333333;strokeColor=#666666;" vertex="1" parent="1">
          <mxGeometry x="920" y="-230" width="120" height="30" as="geometry" />
        </mxCell>
        <mxCell id="V9FJqCmlLuENBh-RQ5aB-63" value="1" style="rounded=0;whiteSpace=wrap;html=1;" vertex="1" parent="1">
          <mxGeometry x="1040" y="-230" width="120" height="30" as="geometry" />
        </mxCell>
        <mxCell id="V9FJqCmlLuENBh-RQ5aB-66" value="Frequency" style="rounded=0;whiteSpace=wrap;html=1;fillColor=#f5f5f5;fontColor=#333333;strokeColor=#666666;" vertex="1" parent="1">
          <mxGeometry x="920" y="-200" width="120" height="30" as="geometry" />
        </mxCell>
        <mxCell id="V9FJqCmlLuENBh-RQ5aB-67" value="6" style="rounded=0;whiteSpace=wrap;html=1;" vertex="1" parent="1">
          <mxGeometry x="1040" y="-200" width="120" height="30" as="geometry" />
        </mxCell>
        <mxCell id="V9FJqCmlLuENBh-RQ5aB-68" value="SourceId" style="rounded=0;whiteSpace=wrap;html=1;fillColor=#f5f5f5;fontColor=#333333;strokeColor=#666666;" vertex="1" parent="1">
          <mxGeometry x="920" y="-170" width="120" height="30" as="geometry" />
        </mxCell>
        <mxCell id="V9FJqCmlLuENBh-RQ5aB-69" value="3" style="rounded=0;whiteSpace=wrap;html=1;" vertex="1" parent="1">
          <mxGeometry x="1040" y="-170" width="120" height="30" as="geometry" />
        </mxCell>
        <mxCell id="V9FJqCmlLuENBh-RQ5aB-70" value="DiMin" style="rounded=0;whiteSpace=wrap;html=1;fillColor=#f5f5f5;fontColor=#333333;strokeColor=#666666;" vertex="1" parent="1">
          <mxGeometry x="920" y="-140" width="120" height="30" as="geometry" />
        </mxCell>
        <mxCell id="V9FJqCmlLuENBh-RQ5aB-71" value="6856" style="rounded=0;whiteSpace=wrap;html=1;" vertex="1" parent="1">
          <mxGeometry x="1040" y="-140" width="120" height="30" as="geometry" />
        </mxCell>
        <mxCell id="V9FJqCmlLuENBh-RQ5aB-72" value="DiMax" style="rounded=0;whiteSpace=wrap;html=1;fillColor=#f5f5f5;fontColor=#333333;strokeColor=#666666;" vertex="1" parent="1">
          <mxGeometry x="920" y="-110" width="120" height="30" as="geometry" />
        </mxCell>
        <mxCell id="V9FJqCmlLuENBh-RQ5aB-73" value="8069" style="rounded=0;whiteSpace=wrap;html=1;" vertex="1" parent="1">
          <mxGeometry x="1040" y="-110" width="120" height="30" as="geometry" />
        </mxCell>
        <mxCell id="V9FJqCmlLuENBh-RQ5aB-74" value="TiType" style="rounded=0;whiteSpace=wrap;html=1;fillColor=#f5f5f5;fontColor=#333333;strokeColor=#666666;" vertex="1" parent="1">
          <mxGeometry x="920" y="-80" width="120" height="30" as="geometry" />
        </mxCell>
        <mxCell id="V9FJqCmlLuENBh-RQ5aB-75" value="961" style="rounded=0;whiteSpace=wrap;html=1;" vertex="1" parent="1">
          <mxGeometry x="1040" y="-80" width="120" height="30" as="geometry" />
        </mxCell>
        <mxCell id="V9FJqCmlLuENBh-RQ5aB-76" value="Version" style="rounded=0;whiteSpace=wrap;html=1;fillColor=#f5f5f5;fontColor=#333333;strokeColor=#666666;" vertex="1" parent="1">
          <mxGeometry x="920" y="-50" width="120" height="30" as="geometry" />
        </mxCell>
        <mxCell id="V9FJqCmlLuENBh-RQ5aB-77" value="1" style="rounded=0;whiteSpace=wrap;html=1;" vertex="1" parent="1">
          <mxGeometry x="1040" y="-50" width="120" height="30" as="geometry" />
        </mxCell>
        <mxCell id="V9FJqCmlLuENBh-RQ5aB-82" value="&lt;b&gt;factor meta dict @Local&lt;/b&gt;" style="rounded=0;whiteSpace=wrap;html=1;verticalAlign=top;" vertex="1" parent="1">
          <mxGeometry x="1320" y="-320" width="400" height="370" as="geometry" />
        </mxCell>
        <mxCell id="V9FJqCmlLuENBh-RQ5aB-83" value="" style="shape=singleArrow;whiteSpace=wrap;html=1;arrowWidth=0.3605120340983073;arrowSize=0.45897933959960935;" vertex="1" parent="1">
          <mxGeometry x="1210" y="-100" width="100" height="60" as="geometry" />
        </mxCell>
        <mxCell id="V9FJqCmlLuENBh-RQ5aB-101" value="IND_A477" style="rounded=0;whiteSpace=wrap;html=1;fillColor=#f5f5f5;fontColor=#333333;strokeColor=#666666;" vertex="1" parent="1">
          <mxGeometry x="1360" y="-260" width="80" height="120" as="geometry" />
        </mxCell>
        <mxCell id="V9FJqCmlLuENBh-RQ5aB-102" value="IsValid" style="rounded=0;whiteSpace=wrap;html=1;fillColor=#f5f5f5;fontColor=#333333;strokeColor=#666666;" vertex="1" parent="1">
          <mxGeometry x="1440" y="-260" width="80" height="30" as="geometry" />
        </mxCell>
        <mxCell id="V9FJqCmlLuENBh-RQ5aB-103" value="Version" style="rounded=0;whiteSpace=wrap;html=1;fillColor=#f5f5f5;fontColor=#333333;strokeColor=#666666;" vertex="1" parent="1">
          <mxGeometry x="1440" y="-230" width="80" height="30" as="geometry" />
        </mxCell>
        <mxCell id="V9FJqCmlLuENBh-RQ5aB-104" value="Frequence" style="rounded=0;whiteSpace=wrap;html=1;fillColor=#f5f5f5;fontColor=#333333;strokeColor=#666666;" vertex="1" parent="1">
          <mxGeometry x="1440" y="-200" width="80" height="30" as="geometry" />
        </mxCell>
        <mxCell id="V9FJqCmlLuENBh-RQ5aB-107" value="SectionNum" style="rounded=0;whiteSpace=wrap;html=1;fillColor=#f5f5f5;fontColor=#333333;strokeColor=#666666;" vertex="1" parent="1">
          <mxGeometry x="1440" y="-170" width="80" height="30" as="geometry" />
        </mxCell>
        <mxCell id="V9FJqCmlLuENBh-RQ5aB-108" value="1" style="rounded=0;whiteSpace=wrap;html=1;" vertex="1" parent="1">
          <mxGeometry x="1520" y="-260" width="150" height="30" as="geometry" />
        </mxCell>
        <mxCell id="V9FJqCmlLuENBh-RQ5aB-109" value="1" style="rounded=0;whiteSpace=wrap;html=1;" vertex="1" parent="1">
          <mxGeometry x="1520" y="-230" width="150" height="30" as="geometry" />
        </mxCell>
        <mxCell id="V9FJqCmlLuENBh-RQ5aB-110" value="frequence.s15" style="rounded=0;whiteSpace=wrap;html=1;" vertex="1" parent="1">
          <mxGeometry x="1520" y="-200" width="150" height="30" as="geometry" />
        </mxCell>
        <mxCell id="V9FJqCmlLuENBh-RQ5aB-111" value="961" style="rounded=0;whiteSpace=wrap;html=1;" vertex="1" parent="1">
          <mxGeometry x="1520" y="-170" width="150" height="30" as="geometry" />
        </mxCell>
        <mxCell id="V9FJqCmlLuENBh-RQ5aB-112" value="..." style="rounded=0;whiteSpace=wrap;html=1;fillColor=#f5f5f5;fontColor=#333333;strokeColor=#666666;" vertex="1" parent="1">
          <mxGeometry x="1360" y="-140" width="80" height="120" as="geometry" />
        </mxCell>
        <mxCell id="V9FJqCmlLuENBh-RQ5aB-114" value="" style="rounded=0;whiteSpace=wrap;html=1;fillColor=#f5f5f5;fontColor=#333333;strokeColor=#666666;" vertex="1" parent="1">
          <mxGeometry x="1440" y="-110" width="80" height="30" as="geometry" />
        </mxCell>
        <mxCell id="V9FJqCmlLuENBh-RQ5aB-115" value="" style="rounded=0;whiteSpace=wrap;html=1;fillColor=#f5f5f5;fontColor=#333333;strokeColor=#666666;" vertex="1" parent="1">
          <mxGeometry x="1440" y="-80" width="80" height="30" as="geometry" />
        </mxCell>
        <mxCell id="V9FJqCmlLuENBh-RQ5aB-116" value="" style="rounded=0;whiteSpace=wrap;html=1;fillColor=#f5f5f5;fontColor=#333333;strokeColor=#666666;" vertex="1" parent="1">
          <mxGeometry x="1440" y="-50" width="80" height="30" as="geometry" />
        </mxCell>
        <mxCell id="V9FJqCmlLuENBh-RQ5aB-117" value="" style="rounded=0;whiteSpace=wrap;html=1;" vertex="1" parent="1">
          <mxGeometry x="1520" y="-140" width="150" height="30" as="geometry" />
        </mxCell>
        <mxCell id="V9FJqCmlLuENBh-RQ5aB-118" value="" style="rounded=0;whiteSpace=wrap;html=1;" vertex="1" parent="1">
          <mxGeometry x="1520" y="-110" width="150" height="30" as="geometry" />
        </mxCell>
        <mxCell id="V9FJqCmlLuENBh-RQ5aB-119" value="" style="rounded=0;whiteSpace=wrap;html=1;" vertex="1" parent="1">
          <mxGeometry x="1520" y="-80" width="150" height="30" as="geometry" />
        </mxCell>
        <mxCell id="V9FJqCmlLuENBh-RQ5aB-120" value="" style="rounded=0;whiteSpace=wrap;html=1;" vertex="1" parent="1">
          <mxGeometry x="1520" y="-50" width="150" height="30" as="geometry" />
        </mxCell>
        <mxCell id="V9FJqCmlLuENBh-RQ5aB-121" value="" style="rounded=0;whiteSpace=wrap;html=1;fillColor=#f5f5f5;fontColor=#333333;strokeColor=#666666;" vertex="1" parent="1">
          <mxGeometry x="1440" y="-140" width="80" height="30" as="geometry" />
        </mxCell>
        <mxCell id="V9FJqCmlLuENBh-RQ5aB-123" value="&lt;b&gt;Datas&lt;/b&gt;" style="rounded=0;whiteSpace=wrap;html=1;verticalAlign=top;" vertex="1" parent="1">
          <mxGeometry x="1840" y="-322.5" width="400" height="370" as="geometry" />
        </mxCell>
        <mxCell id="V9FJqCmlLuENBh-RQ5aB-126" value="frequence.s15" style="rounded=0;whiteSpace=wrap;html=1;" vertex="1" parent="1">
          <mxGeometry x="1880" y="-252.5" width="100" height="55" as="geometry" />
        </mxCell>
        <mxCell id="V9FJqCmlLuENBh-RQ5aB-127" value="factorlist []" style="rounded=0;whiteSpace=wrap;html=1;verticalAlign=top;" vertex="1" parent="1">
          <mxGeometry x="1980" y="-252.5" width="220" height="55" as="geometry" />
        </mxCell>
        <mxCell id="V9FJqCmlLuENBh-RQ5aB-128" value="IND_A477" style="rounded=0;whiteSpace=wrap;html=1;" vertex="1" parent="1">
          <mxGeometry x="1990" y="-222.5" width="60" height="20" as="geometry" />
        </mxCell>
        <mxCell id="V9FJqCmlLuENBh-RQ5aB-129" value="" style="shape=singleArrow;whiteSpace=wrap;html=1;arrowWidth=0.3605120340983073;arrowSize=0.45897933959960935;" vertex="1" parent="1">
          <mxGeometry x="1730" y="-215" width="100" height="60" as="geometry" />
        </mxCell>
        <mxCell id="V9FJqCmlLuENBh-RQ5aB-130" value="frequence..." style="rounded=0;whiteSpace=wrap;html=1;" vertex="1" parent="1">
          <mxGeometry x="1880" y="-195" width="100" height="55" as="geometry" />
        </mxCell>
        <mxCell id="V9FJqCmlLuENBh-RQ5aB-131" value="factorlist []" style="rounded=0;whiteSpace=wrap;html=1;verticalAlign=top;" vertex="1" parent="1">
          <mxGeometry x="1980" y="-195" width="220" height="55" as="geometry" />
        </mxCell>
        <mxCell id="V9FJqCmlLuENBh-RQ5aB-132" value="" style="rounded=0;whiteSpace=wrap;html=1;fillColor=#f5f5f5;fontColor=#333333;strokeColor=#666666;" vertex="1" parent="1">
          <mxGeometry x="1990" y="-165" width="60" height="20" as="geometry" />
        </mxCell>
        <mxCell id="V9FJqCmlLuENBh-RQ5aB-133" value="" style="rounded=0;whiteSpace=wrap;html=1;fillColor=#f5f5f5;fontColor=#333333;strokeColor=#666666;" vertex="1" parent="1">
          <mxGeometry x="2050" y="-165" width="60" height="20" as="geometry" />
        </mxCell>
        <mxCell id="V9FJqCmlLuENBh-RQ5aB-134" value="" style="rounded=0;whiteSpace=wrap;html=1;fillColor=#f5f5f5;fontColor=#333333;strokeColor=#666666;" vertex="1" parent="1">
          <mxGeometry x="2110" y="-165" width="60" height="20" as="geometry" />
        </mxCell>
        <mxCell id="V9FJqCmlLuENBh-RQ5aB-135" value="" style="rounded=0;whiteSpace=wrap;html=1;fillColor=#f5f5f5;fontColor=#333333;strokeColor=#666666;" vertex="1" parent="1">
          <mxGeometry x="2050" y="-222.5" width="60" height="20" as="geometry" />
        </mxCell>
        <mxCell id="V9FJqCmlLuENBh-RQ5aB-136" value="" style="rounded=0;whiteSpace=wrap;html=1;fillColor=#f5f5f5;fontColor=#333333;strokeColor=#666666;" vertex="1" parent="1">
          <mxGeometry x="2110" y="-222.5" width="60" height="20" as="geometry" />
        </mxCell>
        <mxCell id="V9FJqCmlLuENBh-RQ5aB-139" value="DBFactorReader" style="rounded=0;whiteSpace=wrap;html=1;verticalAlign=top;" vertex="1" parent="1">
          <mxGeometry x="880" y="160" width="720" height="470" as="geometry" />
        </mxCell>
        <mxCell id="V9FJqCmlLuENBh-RQ5aB-140" value="get_data_frame" style="rounded=0;whiteSpace=wrap;html=1;" vertex="1" parent="1">
          <mxGeometry x="900" y="240" width="120" height="60" as="geometry" />
        </mxCell>
        <mxCell id="V9FJqCmlLuENBh-RQ5aB-141" value="" style="shape=process;whiteSpace=wrap;html=1;backgroundOutline=1;size=0.022727272727272728;" vertex="1" parent="1">
          <mxGeometry x="1020" y="240" width="380" height="60" as="geometry" />
        </mxCell>
        <mxCell id="V9FJqCmlLuENBh-RQ5aB-142" value="起始日期" style="rounded=0;whiteSpace=wrap;html=1;" vertex="1" parent="1">
          <mxGeometry x="1040" y="255" width="60" height="30" as="geometry" />
        </mxCell>
        <mxCell id="V9FJqCmlLuENBh-RQ5aB-143" value="终止日期" style="rounded=0;whiteSpace=wrap;html=1;" vertex="1" parent="1">
          <mxGeometry x="1110" y="255" width="60" height="30" as="geometry" />
        </mxCell>
        <mxCell id="V9FJqCmlLuENBh-RQ5aB-144" value="tp list" style="rounded=0;whiteSpace=wrap;html=1;" vertex="1" parent="1">
          <mxGeometry x="1180" y="255" width="60" height="30" as="geometry" />
        </mxCell>
        <mxCell id="V9FJqCmlLuENBh-RQ5aB-145" value="因子列表" style="rounded=0;whiteSpace=wrap;html=1;" vertex="1" parent="1">
          <mxGeometry x="1250" y="255" width="60" height="30" as="geometry" />
        </mxCell>
        <mxCell id="V9FJqCmlLuENBh-RQ5aB-146" value="frequency" style="rounded=0;whiteSpace=wrap;html=1;" vertex="1" parent="1">
          <mxGeometry x="1320" y="255" width="60" height="30" as="geometry" />
        </mxCell>
        <mxCell id="V9FJqCmlLuENBh-RQ5aB-148" value="dataframe" style="rounded=0;whiteSpace=wrap;html=1;" vertex="1" parent="1">
          <mxGeometry x="1470" y="250" width="90" height="40" as="geometry" />
        </mxCell>
        <mxCell id="V9FJqCmlLuENBh-RQ5aB-149" value="" style="shape=flexArrow;endArrow=classic;html=1;rounded=0;width=14.285714285714285;endSize=7.838095238095238;" edge="1" parent="1">
          <mxGeometry width="50" height="50" relative="1" as="geometry">
            <mxPoint x="1410" y="270" as="sourcePoint" />
            <mxPoint x="1460" y="269.52" as="targetPoint" />
          </mxGeometry>
        </mxCell>
        <mxCell id="V9FJqCmlLuENBh-RQ5aB-151" value="" style="rounded=0;whiteSpace=wrap;html=1;" vertex="1" parent="1">
          <mxGeometry x="880" y="840" width="440" height="440" as="geometry" />
        </mxCell>
        <mxCell id="V9FJqCmlLuENBh-RQ5aB-152" value="SiliconFlow Key Management" style="shape=table;startSize=30;container=1;collapsible=0;childLayout=tableLayout;strokeColor=default;fontSize=16;" vertex="1" parent="1">
          <mxGeometry x="910" y="900" width="380" height="180" as="geometry" />
        </mxCell>
        <mxCell id="V9FJqCmlLuENBh-RQ5aB-153" value="" style="shape=tableRow;horizontal=0;startSize=0;swimlaneHead=0;swimlaneBody=0;strokeColor=inherit;top=0;left=0;bottom=0;right=0;collapsible=0;dropTarget=0;fillColor=none;points=[[0,0.5],[1,0.5]];portConstraint=eastwest;fontSize=16;" vertex="1" parent="V9FJqCmlLuENBh-RQ5aB-152">
          <mxGeometry y="30" width="380" height="30" as="geometry" />
        </mxCell>
        <mxCell id="V9FJqCmlLuENBh-RQ5aB-168" style="shape=partialRectangle;html=1;whiteSpace=wrap;connectable=0;strokeColor=inherit;overflow=hidden;fillColor=none;top=0;left=0;bottom=0;right=0;pointerEvents=1;fontSize=16;" vertex="1" parent="V9FJqCmlLuENBh-RQ5aB-153">
          <mxGeometry width="76" height="30" as="geometry">
            <mxRectangle width="76" height="30" as="alternateBounds" />
          </mxGeometry>
        </mxCell>
        <mxCell id="V9FJqCmlLuENBh-RQ5aB-165" style="shape=partialRectangle;html=1;whiteSpace=wrap;connectable=0;strokeColor=inherit;overflow=hidden;fillColor=none;top=0;left=0;bottom=0;right=0;pointerEvents=1;fontSize=16;" vertex="1" parent="V9FJqCmlLuENBh-RQ5aB-153">
          <mxGeometry x="76" width="76" height="30" as="geometry">
            <mxRectangle width="76" height="30" as="alternateBounds" />
          </mxGeometry>
        </mxCell>
        <mxCell id="V9FJqCmlLuENBh-RQ5aB-154" value="" style="shape=partialRectangle;html=1;whiteSpace=wrap;connectable=0;strokeColor=inherit;overflow=hidden;fillColor=none;top=0;left=0;bottom=0;right=0;pointerEvents=1;fontSize=16;" vertex="1" parent="V9FJqCmlLuENBh-RQ5aB-153">
          <mxGeometry x="152" width="76" height="30" as="geometry">
            <mxRectangle width="76" height="30" as="alternateBounds" />
          </mxGeometry>
        </mxCell>
        <mxCell id="V9FJqCmlLuENBh-RQ5aB-155" value="" style="shape=partialRectangle;html=1;whiteSpace=wrap;connectable=0;strokeColor=inherit;overflow=hidden;fillColor=none;top=0;left=0;bottom=0;right=0;pointerEvents=1;fontSize=16;" vertex="1" parent="V9FJqCmlLuENBh-RQ5aB-153">
          <mxGeometry x="228" width="76" height="30" as="geometry">
            <mxRectangle width="76" height="30" as="alternateBounds" />
          </mxGeometry>
        </mxCell>
        <mxCell id="V9FJqCmlLuENBh-RQ5aB-156" value="" style="shape=partialRectangle;html=1;whiteSpace=wrap;connectable=0;strokeColor=inherit;overflow=hidden;fillColor=none;top=0;left=0;bottom=0;right=0;pointerEvents=1;fontSize=16;" vertex="1" parent="V9FJqCmlLuENBh-RQ5aB-153">
          <mxGeometry x="304" width="76" height="30" as="geometry">
            <mxRectangle width="76" height="30" as="alternateBounds" />
          </mxGeometry>
        </mxCell>
        <mxCell id="V9FJqCmlLuENBh-RQ5aB-157" value="" style="shape=tableRow;horizontal=0;startSize=0;swimlaneHead=0;swimlaneBody=0;strokeColor=inherit;top=0;left=0;bottom=0;right=0;collapsible=0;dropTarget=0;fillColor=none;points=[[0,0.5],[1,0.5]];portConstraint=eastwest;fontSize=16;" vertex="1" parent="V9FJqCmlLuENBh-RQ5aB-152">
          <mxGeometry y="60" width="380" height="40" as="geometry" />
        </mxCell>
        <mxCell id="V9FJqCmlLuENBh-RQ5aB-169" style="shape=partialRectangle;html=1;whiteSpace=wrap;connectable=0;strokeColor=inherit;overflow=hidden;fillColor=none;top=0;left=0;bottom=0;right=0;pointerEvents=1;fontSize=16;" vertex="1" parent="V9FJqCmlLuENBh-RQ5aB-157">
          <mxGeometry width="76" height="40" as="geometry">
            <mxRectangle width="76" height="40" as="alternateBounds" />
          </mxGeometry>
        </mxCell>
        <mxCell id="V9FJqCmlLuENBh-RQ5aB-166" style="shape=partialRectangle;html=1;whiteSpace=wrap;connectable=0;strokeColor=inherit;overflow=hidden;fillColor=none;top=0;left=0;bottom=0;right=0;pointerEvents=1;fontSize=16;" vertex="1" parent="V9FJqCmlLuENBh-RQ5aB-157">
          <mxGeometry x="76" width="76" height="40" as="geometry">
            <mxRectangle width="76" height="40" as="alternateBounds" />
          </mxGeometry>
        </mxCell>
        <mxCell id="V9FJqCmlLuENBh-RQ5aB-158" value="" style="shape=partialRectangle;html=1;whiteSpace=wrap;connectable=0;strokeColor=inherit;overflow=hidden;fillColor=none;top=0;left=0;bottom=0;right=0;pointerEvents=1;fontSize=16;" vertex="1" parent="V9FJqCmlLuENBh-RQ5aB-157">
          <mxGeometry x="152" width="76" height="40" as="geometry">
            <mxRectangle width="76" height="40" as="alternateBounds" />
          </mxGeometry>
        </mxCell>
        <mxCell id="V9FJqCmlLuENBh-RQ5aB-159" value="" style="shape=partialRectangle;html=1;whiteSpace=wrap;connectable=0;strokeColor=inherit;overflow=hidden;fillColor=none;top=0;left=0;bottom=0;right=0;pointerEvents=1;fontSize=16;" vertex="1" parent="V9FJqCmlLuENBh-RQ5aB-157">
          <mxGeometry x="228" width="76" height="40" as="geometry">
            <mxRectangle width="76" height="40" as="alternateBounds" />
          </mxGeometry>
        </mxCell>
        <mxCell id="V9FJqCmlLuENBh-RQ5aB-160" value="" style="shape=partialRectangle;html=1;whiteSpace=wrap;connectable=0;strokeColor=inherit;overflow=hidden;fillColor=none;top=0;left=0;bottom=0;right=0;pointerEvents=1;fontSize=16;" vertex="1" parent="V9FJqCmlLuENBh-RQ5aB-157">
          <mxGeometry x="304" width="76" height="40" as="geometry">
            <mxRectangle width="76" height="40" as="alternateBounds" />
          </mxGeometry>
        </mxCell>
        <mxCell id="V9FJqCmlLuENBh-RQ5aB-161" value="" style="shape=tableRow;horizontal=0;startSize=0;swimlaneHead=0;swimlaneBody=0;strokeColor=inherit;top=0;left=0;bottom=0;right=0;collapsible=0;dropTarget=0;fillColor=none;points=[[0,0.5],[1,0.5]];portConstraint=eastwest;fontSize=16;" vertex="1" parent="V9FJqCmlLuENBh-RQ5aB-152">
          <mxGeometry y="100" width="380" height="40" as="geometry" />
        </mxCell>
        <mxCell id="V9FJqCmlLuENBh-RQ5aB-170" style="shape=partialRectangle;html=1;whiteSpace=wrap;connectable=0;strokeColor=inherit;overflow=hidden;fillColor=none;top=0;left=0;bottom=0;right=0;pointerEvents=1;fontSize=16;" vertex="1" parent="V9FJqCmlLuENBh-RQ5aB-161">
          <mxGeometry width="76" height="40" as="geometry">
            <mxRectangle width="76" height="40" as="alternateBounds" />
          </mxGeometry>
        </mxCell>
        <mxCell id="V9FJqCmlLuENBh-RQ5aB-167" style="shape=partialRectangle;html=1;whiteSpace=wrap;connectable=0;strokeColor=inherit;overflow=hidden;fillColor=none;top=0;left=0;bottom=0;right=0;pointerEvents=1;fontSize=16;" vertex="1" parent="V9FJqCmlLuENBh-RQ5aB-161">
          <mxGeometry x="76" width="76" height="40" as="geometry">
            <mxRectangle width="76" height="40" as="alternateBounds" />
          </mxGeometry>
        </mxCell>
        <mxCell id="V9FJqCmlLuENBh-RQ5aB-162" value="" style="shape=partialRectangle;html=1;whiteSpace=wrap;connectable=0;strokeColor=inherit;overflow=hidden;fillColor=none;top=0;left=0;bottom=0;right=0;pointerEvents=1;fontSize=16;" vertex="1" parent="V9FJqCmlLuENBh-RQ5aB-161">
          <mxGeometry x="152" width="76" height="40" as="geometry">
            <mxRectangle width="76" height="40" as="alternateBounds" />
          </mxGeometry>
        </mxCell>
        <mxCell id="V9FJqCmlLuENBh-RQ5aB-163" value="" style="shape=partialRectangle;html=1;whiteSpace=wrap;connectable=0;strokeColor=inherit;overflow=hidden;fillColor=none;top=0;left=0;bottom=0;right=0;pointerEvents=1;fontSize=16;" vertex="1" parent="V9FJqCmlLuENBh-RQ5aB-161">
          <mxGeometry x="228" width="76" height="40" as="geometry">
            <mxRectangle width="76" height="40" as="alternateBounds" />
          </mxGeometry>
        </mxCell>
        <mxCell id="V9FJqCmlLuENBh-RQ5aB-164" value="" style="shape=partialRectangle;html=1;whiteSpace=wrap;connectable=0;strokeColor=inherit;overflow=hidden;fillColor=none;top=0;left=0;bottom=0;right=0;pointerEvents=1;fontSize=16;" vertex="1" parent="V9FJqCmlLuENBh-RQ5aB-161">
          <mxGeometry x="304" width="76" height="40" as="geometry">
            <mxRectangle width="76" height="40" as="alternateBounds" />
          </mxGeometry>
        </mxCell>
        <mxCell id="V9FJqCmlLuENBh-RQ5aB-171" style="shape=tableRow;horizontal=0;startSize=0;swimlaneHead=0;swimlaneBody=0;strokeColor=inherit;top=0;left=0;bottom=0;right=0;collapsible=0;dropTarget=0;fillColor=none;points=[[0,0.5],[1,0.5]];portConstraint=eastwest;fontSize=16;" vertex="1" parent="V9FJqCmlLuENBh-RQ5aB-152">
          <mxGeometry y="140" width="380" height="40" as="geometry" />
        </mxCell>
        <mxCell id="V9FJqCmlLuENBh-RQ5aB-172" style="shape=partialRectangle;html=1;whiteSpace=wrap;connectable=0;strokeColor=inherit;overflow=hidden;fillColor=none;top=0;left=0;bottom=0;right=0;pointerEvents=1;fontSize=16;" vertex="1" parent="V9FJqCmlLuENBh-RQ5aB-171">
          <mxGeometry width="76" height="40" as="geometry">
            <mxRectangle width="76" height="40" as="alternateBounds" />
          </mxGeometry>
        </mxCell>
        <mxCell id="V9FJqCmlLuENBh-RQ5aB-173" style="shape=partialRectangle;html=1;whiteSpace=wrap;connectable=0;strokeColor=inherit;overflow=hidden;fillColor=none;top=0;left=0;bottom=0;right=0;pointerEvents=1;fontSize=16;" vertex="1" parent="V9FJqCmlLuENBh-RQ5aB-171">
          <mxGeometry x="76" width="76" height="40" as="geometry">
            <mxRectangle width="76" height="40" as="alternateBounds" />
          </mxGeometry>
        </mxCell>
        <mxCell id="V9FJqCmlLuENBh-RQ5aB-174" style="shape=partialRectangle;html=1;whiteSpace=wrap;connectable=0;strokeColor=inherit;overflow=hidden;fillColor=none;top=0;left=0;bottom=0;right=0;pointerEvents=1;fontSize=16;" vertex="1" parent="V9FJqCmlLuENBh-RQ5aB-171">
          <mxGeometry x="152" width="76" height="40" as="geometry">
            <mxRectangle width="76" height="40" as="alternateBounds" />
          </mxGeometry>
        </mxCell>
        <mxCell id="V9FJqCmlLuENBh-RQ5aB-175" style="shape=partialRectangle;html=1;whiteSpace=wrap;connectable=0;strokeColor=inherit;overflow=hidden;fillColor=none;top=0;left=0;bottom=0;right=0;pointerEvents=1;fontSize=16;" vertex="1" parent="V9FJqCmlLuENBh-RQ5aB-171">
          <mxGeometry x="228" width="76" height="40" as="geometry">
            <mxRectangle width="76" height="40" as="alternateBounds" />
          </mxGeometry>
        </mxCell>
        <mxCell id="V9FJqCmlLuENBh-RQ5aB-176" style="shape=partialRectangle;html=1;whiteSpace=wrap;connectable=0;strokeColor=inherit;overflow=hidden;fillColor=none;top=0;left=0;bottom=0;right=0;pointerEvents=1;fontSize=16;" vertex="1" parent="V9FJqCmlLuENBh-RQ5aB-171">
          <mxGeometry x="304" width="76" height="40" as="geometry">
            <mxRectangle width="76" height="40" as="alternateBounds" />
          </mxGeometry>
        </mxCell>
      </root>
    </mxGraphModel>
  </diagram>
  <diagram id="-YCUnJU15Nte5GqaTnnb" name="流程简图">
    <mxGraphModel dx="1474" dy="1185" grid="1" gridSize="10" guides="1" tooltips="1" connect="1" arrows="1" fold="1" page="0" pageScale="1" pageWidth="827" pageHeight="1169" math="0" shadow="0">
      <root>
        <mxCell id="0" />
        <mxCell id="1" parent="0" />
        <mxCell id="roPxoz-Sqhkd76AysJlx-102" value="模型训练环节" style="rounded=0;whiteSpace=wrap;html=1;verticalAlign=top;align=left;" vertex="1" parent="1">
          <mxGeometry x="920" y="-50" width="1070" height="490" as="geometry" />
        </mxCell>
        <mxCell id="roPxoz-Sqhkd76AysJlx-101" value="研究环节" style="rounded=0;whiteSpace=wrap;html=1;verticalAlign=top;align=left;" vertex="1" parent="1">
          <mxGeometry x="600" y="-50" width="300" height="490" as="geometry" />
        </mxCell>
        <mxCell id="roPxoz-Sqhkd76AysJlx-36" value="" style="rounded=0;whiteSpace=wrap;html=1;fillColor=#f5f5f5;fontColor=#333333;strokeColor=#666666;" vertex="1" parent="1">
          <mxGeometry x="40" y="40" width="160" height="200" as="geometry" />
        </mxCell>
        <mxCell id="roPxoz-Sqhkd76AysJlx-37" value="数据预处理" style="rounded=0;whiteSpace=wrap;html=1;fillColor=#d5e8d4;strokeColor=#82b366;" vertex="1" parent="1">
          <mxGeometry x="50" y="50" width="140" height="50" as="geometry" />
        </mxCell>
        <mxCell id="roPxoz-Sqhkd76AysJlx-38" value="模型训练" style="rounded=0;whiteSpace=wrap;html=1;fillColor=#ffe6cc;strokeColor=#d79b00;" vertex="1" parent="1">
          <mxGeometry x="50" y="150" width="140" height="80" as="geometry" />
        </mxCell>
        <mxCell id="roPxoz-Sqhkd76AysJlx-39" value=".npy&amp;nbsp;训练文件" style="rounded=1;whiteSpace=wrap;html=1;fillColor=#dae8fc;strokeColor=#6c8ebf;" vertex="1" parent="1">
          <mxGeometry x="50" y="110" width="140" height="30" as="geometry" />
        </mxCell>
        <mxCell id="roPxoz-Sqhkd76AysJlx-57" style="edgeStyle=orthogonalEdgeStyle;rounded=0;orthogonalLoop=1;jettySize=auto;html=1;exitX=1;exitY=0.5;exitDx=0;exitDy=0;dashed=1;" edge="1" parent="1" source="roPxoz-Sqhkd76AysJlx-42" target="roPxoz-Sqhkd76AysJlx-56">
          <mxGeometry relative="1" as="geometry" />
        </mxCell>
        <mxCell id="roPxoz-Sqhkd76AysJlx-42" value="model&amp;nbsp;train" style="swimlane;whiteSpace=wrap;html=1;fillColor=#e1d5e7;strokeColor=#9673a6;" vertex="1" parent="1">
          <mxGeometry x="650" y="170" width="160" height="120" as="geometry" />
        </mxCell>
        <mxCell id="roPxoz-Sqhkd76AysJlx-43" value="模型训练" style="rounded=0;whiteSpace=wrap;html=1;fillColor=#ffe6cc;strokeColor=#d79b00;" vertex="1" parent="roPxoz-Sqhkd76AysJlx-42">
          <mxGeometry x="10" y="30" width="140" height="80" as="geometry" />
        </mxCell>
        <mxCell id="roPxoz-Sqhkd76AysJlx-45" value="" style="endArrow=none;dashed=1;html=1;dashPattern=1 3;strokeWidth=2;rounded=0;" edge="1" parent="1">
          <mxGeometry width="50" height="50" relative="1" as="geometry">
            <mxPoint x="470" y="830" as="sourcePoint" />
            <mxPoint x="470" y="160" as="targetPoint" />
          </mxGeometry>
        </mxCell>
        <mxCell id="roPxoz-Sqhkd76AysJlx-53" value="alpha pipeline" style="swimlane;whiteSpace=wrap;html=1;fillColor=#e1d5e7;strokeColor=#9673a6;align=left;" vertex="1" parent="1">
          <mxGeometry x="1030" y="70" width="900" height="330" as="geometry" />
        </mxCell>
        <mxCell id="roPxoz-Sqhkd76AysJlx-69" style="edgeStyle=orthogonalEdgeStyle;rounded=0;orthogonalLoop=1;jettySize=auto;html=1;exitX=1;exitY=0.5;exitDx=0;exitDy=0;" edge="1" parent="roPxoz-Sqhkd76AysJlx-53" source="roPxoz-Sqhkd76AysJlx-67" target="roPxoz-Sqhkd76AysJlx-68">
          <mxGeometry relative="1" as="geometry" />
        </mxCell>
        <mxCell id="roPxoz-Sqhkd76AysJlx-72" style="edgeStyle=orthogonalEdgeStyle;rounded=0;orthogonalLoop=1;jettySize=auto;html=1;exitX=1;exitY=0.5;exitDx=0;exitDy=0;entryX=0;entryY=0.5;entryDx=0;entryDy=0;" edge="1" parent="roPxoz-Sqhkd76AysJlx-53" source="roPxoz-Sqhkd76AysJlx-67" target="roPxoz-Sqhkd76AysJlx-70">
          <mxGeometry relative="1" as="geometry" />
        </mxCell>
        <mxCell id="roPxoz-Sqhkd76AysJlx-73" style="edgeStyle=orthogonalEdgeStyle;rounded=0;orthogonalLoop=1;jettySize=auto;html=1;exitX=1;exitY=0.5;exitDx=0;exitDy=0;entryX=0;entryY=0.5;entryDx=0;entryDy=0;" edge="1" parent="roPxoz-Sqhkd76AysJlx-53" source="roPxoz-Sqhkd76AysJlx-67" target="roPxoz-Sqhkd76AysJlx-71">
          <mxGeometry relative="1" as="geometry" />
        </mxCell>
        <mxCell id="roPxoz-Sqhkd76AysJlx-67" value="读取模型配置文件" style="rounded=0;whiteSpace=wrap;html=1;fillColor=#fff2cc;strokeColor=#d6b656;" vertex="1" parent="roPxoz-Sqhkd76AysJlx-53">
          <mxGeometry x="20" y="40" width="140" height="40" as="geometry" />
        </mxCell>
        <mxCell id="roPxoz-Sqhkd76AysJlx-78" style="edgeStyle=orthogonalEdgeStyle;rounded=0;orthogonalLoop=1;jettySize=auto;html=1;exitX=1;exitY=0.5;exitDx=0;exitDy=0;" edge="1" parent="roPxoz-Sqhkd76AysJlx-53" source="roPxoz-Sqhkd76AysJlx-68" target="roPxoz-Sqhkd76AysJlx-74">
          <mxGeometry relative="1" as="geometry" />
        </mxCell>
        <mxCell id="roPxoz-Sqhkd76AysJlx-68" value="Model A" style="rounded=0;whiteSpace=wrap;html=1;fillColor=#fff2cc;strokeColor=#d6b656;" vertex="1" parent="roPxoz-Sqhkd76AysJlx-53">
          <mxGeometry x="200" y="40" width="80" height="40" as="geometry" />
        </mxCell>
        <mxCell id="roPxoz-Sqhkd76AysJlx-79" style="edgeStyle=orthogonalEdgeStyle;rounded=0;orthogonalLoop=1;jettySize=auto;html=1;exitX=1;exitY=0.5;exitDx=0;exitDy=0;fillColor=#f5f5f5;strokeColor=#666666;" edge="1" parent="roPxoz-Sqhkd76AysJlx-53" source="roPxoz-Sqhkd76AysJlx-70" target="roPxoz-Sqhkd76AysJlx-75">
          <mxGeometry relative="1" as="geometry" />
        </mxCell>
        <mxCell id="roPxoz-Sqhkd76AysJlx-70" value="Model B" style="rounded=0;whiteSpace=wrap;html=1;fillColor=#f5f5f5;fontColor=#333333;strokeColor=#666666;" vertex="1" parent="roPxoz-Sqhkd76AysJlx-53">
          <mxGeometry x="200" y="200" width="80" height="40" as="geometry" />
        </mxCell>
        <mxCell id="roPxoz-Sqhkd76AysJlx-71" value="&lt;b&gt;&lt;font style=&quot;font-size: 19px;&quot;&gt;...&lt;/font&gt;&lt;/b&gt;" style="rounded=0;whiteSpace=wrap;html=1;fillColor=#f5f5f5;fontColor=#333333;strokeColor=#666666;" vertex="1" parent="roPxoz-Sqhkd76AysJlx-53">
          <mxGeometry x="200" y="260" width="80" height="40" as="geometry" />
        </mxCell>
        <mxCell id="roPxoz-Sqhkd76AysJlx-87" style="edgeStyle=orthogonalEdgeStyle;rounded=0;orthogonalLoop=1;jettySize=auto;html=1;exitX=1;exitY=0.5;exitDx=0;exitDy=0;" edge="1" parent="roPxoz-Sqhkd76AysJlx-53" source="roPxoz-Sqhkd76AysJlx-74" target="roPxoz-Sqhkd76AysJlx-82">
          <mxGeometry relative="1" as="geometry" />
        </mxCell>
        <mxCell id="roPxoz-Sqhkd76AysJlx-74" value="Model A&amp;nbsp;数据预处理" style="rounded=0;whiteSpace=wrap;html=1;fillColor=#d5e8d4;strokeColor=#82b366;" vertex="1" parent="roPxoz-Sqhkd76AysJlx-53">
          <mxGeometry x="320" y="40" width="120" height="40" as="geometry" />
        </mxCell>
        <mxCell id="roPxoz-Sqhkd76AysJlx-94" style="edgeStyle=orthogonalEdgeStyle;rounded=0;orthogonalLoop=1;jettySize=auto;html=1;exitX=1;exitY=0.5;exitDx=0;exitDy=0;" edge="1" parent="roPxoz-Sqhkd76AysJlx-53" source="roPxoz-Sqhkd76AysJlx-75" target="roPxoz-Sqhkd76AysJlx-83">
          <mxGeometry relative="1" as="geometry" />
        </mxCell>
        <mxCell id="roPxoz-Sqhkd76AysJlx-75" value="Model B 数据预处理" style="rounded=0;whiteSpace=wrap;html=1;fillColor=#f5f5f5;fontColor=#333333;strokeColor=#666666;" vertex="1" parent="roPxoz-Sqhkd76AysJlx-53">
          <mxGeometry x="320" y="200" width="120" height="40" as="geometry" />
        </mxCell>
        <mxCell id="roPxoz-Sqhkd76AysJlx-90" style="edgeStyle=orthogonalEdgeStyle;rounded=0;orthogonalLoop=1;jettySize=auto;html=1;exitX=1;exitY=0.5;exitDx=0;exitDy=0;" edge="1" parent="roPxoz-Sqhkd76AysJlx-53" source="roPxoz-Sqhkd76AysJlx-76" target="roPxoz-Sqhkd76AysJlx-89">
          <mxGeometry relative="1" as="geometry" />
        </mxCell>
        <mxCell id="roPxoz-Sqhkd76AysJlx-76" value="启动 Model A&amp;nbsp;模型训练容器" style="rounded=0;whiteSpace=wrap;html=1;fillColor=#fff2cc;strokeColor=#d6b656;" vertex="1" parent="roPxoz-Sqhkd76AysJlx-53">
          <mxGeometry x="610" y="40" width="160" height="40" as="geometry" />
        </mxCell>
        <mxCell id="roPxoz-Sqhkd76AysJlx-96" style="edgeStyle=orthogonalEdgeStyle;rounded=0;orthogonalLoop=1;jettySize=auto;html=1;exitX=1;exitY=0.5;exitDx=0;exitDy=0;" edge="1" parent="roPxoz-Sqhkd76AysJlx-53" source="roPxoz-Sqhkd76AysJlx-77" target="roPxoz-Sqhkd76AysJlx-93">
          <mxGeometry relative="1" as="geometry" />
        </mxCell>
        <mxCell id="roPxoz-Sqhkd76AysJlx-77" value="启动 Model B 模型训练容器" style="rounded=0;whiteSpace=wrap;html=1;fillColor=#f5f5f5;fontColor=#333333;strokeColor=#666666;" vertex="1" parent="roPxoz-Sqhkd76AysJlx-53">
          <mxGeometry x="600" y="200" width="160" height="40" as="geometry" />
        </mxCell>
        <mxCell id="roPxoz-Sqhkd76AysJlx-88" style="edgeStyle=orthogonalEdgeStyle;rounded=0;orthogonalLoop=1;jettySize=auto;html=1;exitX=1;exitY=0.5;exitDx=0;exitDy=0;" edge="1" parent="roPxoz-Sqhkd76AysJlx-53" source="roPxoz-Sqhkd76AysJlx-82" target="roPxoz-Sqhkd76AysJlx-76">
          <mxGeometry relative="1" as="geometry" />
        </mxCell>
        <mxCell id="roPxoz-Sqhkd76AysJlx-82" value="模型训练输入数据" style="rounded=1;whiteSpace=wrap;html=1;fillColor=#dae8fc;strokeColor=#6c8ebf;" vertex="1" parent="roPxoz-Sqhkd76AysJlx-53">
          <mxGeometry x="460" y="40" width="120" height="40" as="geometry" />
        </mxCell>
        <mxCell id="roPxoz-Sqhkd76AysJlx-95" style="edgeStyle=orthogonalEdgeStyle;rounded=0;orthogonalLoop=1;jettySize=auto;html=1;exitX=1;exitY=0.5;exitDx=0;exitDy=0;" edge="1" parent="roPxoz-Sqhkd76AysJlx-53" source="roPxoz-Sqhkd76AysJlx-83" target="roPxoz-Sqhkd76AysJlx-77">
          <mxGeometry relative="1" as="geometry" />
        </mxCell>
        <mxCell id="roPxoz-Sqhkd76AysJlx-83" value="模型训练输入数据" style="rounded=1;whiteSpace=wrap;html=1;fillColor=#f5f5f5;fontColor=#333333;strokeColor=#666666;" vertex="1" parent="roPxoz-Sqhkd76AysJlx-53">
          <mxGeometry x="460" y="200" width="120" height="40" as="geometry" />
        </mxCell>
        <mxCell id="roPxoz-Sqhkd76AysJlx-89" value="模型文件" style="rounded=1;whiteSpace=wrap;html=1;fillColor=#ffe6cc;strokeColor=#d79b00;" vertex="1" parent="roPxoz-Sqhkd76AysJlx-53">
          <mxGeometry x="790" y="40" width="90" height="40" as="geometry" />
        </mxCell>
        <mxCell id="roPxoz-Sqhkd76AysJlx-93" value="模型文件" style="rounded=1;whiteSpace=wrap;html=1;fillColor=#f5f5f5;fontColor=#333333;strokeColor=#666666;" vertex="1" parent="roPxoz-Sqhkd76AysJlx-53">
          <mxGeometry x="780" y="200" width="90" height="40" as="geometry" />
        </mxCell>
        <mxCell id="roPxoz-Sqhkd76AysJlx-100" style="edgeStyle=orthogonalEdgeStyle;rounded=0;orthogonalLoop=1;jettySize=auto;html=1;exitX=0;exitY=0;exitDx=30;exitDy=29.5;exitPerimeter=0;entryX=0;entryY=0.5;entryDx=0;entryDy=0;dashed=1;" edge="1" parent="1" source="roPxoz-Sqhkd76AysJlx-56" target="roPxoz-Sqhkd76AysJlx-76">
          <mxGeometry relative="1" as="geometry">
            <Array as="points">
              <mxPoint x="1620" y="227" />
              <mxPoint x="1620" y="130" />
            </Array>
          </mxGeometry>
        </mxCell>
        <mxCell id="roPxoz-Sqhkd76AysJlx-56" value="IMG" style="shape=note;whiteSpace=wrap;html=1;backgroundOutline=1;darkOpacity=0.05;size=14;fillColor=#b0e3e6;strokeColor=#0e8088;" vertex="1" parent="1">
          <mxGeometry x="850" y="207.5" width="30" height="45" as="geometry" />
        </mxCell>
        <mxCell id="roPxoz-Sqhkd76AysJlx-86" style="edgeStyle=orthogonalEdgeStyle;rounded=0;orthogonalLoop=1;jettySize=auto;html=1;exitX=1;exitY=0.5;exitDx=0;exitDy=0;" edge="1" parent="1" source="roPxoz-Sqhkd76AysJlx-84" target="roPxoz-Sqhkd76AysJlx-76">
          <mxGeometry relative="1" as="geometry" />
        </mxCell>
        <mxCell id="roPxoz-Sqhkd76AysJlx-84" value="宿主机data目录" style="ellipse;whiteSpace=wrap;html=1;fillColor=#dae8fc;strokeColor=#6c8ebf;" vertex="1" parent="1">
          <mxGeometry x="1590" y="-40" width="80" height="70" as="geometry" />
        </mxCell>
        <mxCell id="roPxoz-Sqhkd76AysJlx-85" style="edgeStyle=orthogonalEdgeStyle;rounded=0;orthogonalLoop=1;jettySize=auto;html=1;exitX=0.5;exitY=0;exitDx=0;exitDy=0;entryX=0;entryY=0.5;entryDx=0;entryDy=0;" edge="1" parent="1" source="roPxoz-Sqhkd76AysJlx-82" target="roPxoz-Sqhkd76AysJlx-84">
          <mxGeometry relative="1" as="geometry" />
        </mxCell>
        <mxCell id="roPxoz-Sqhkd76AysJlx-91" value="宿主机model目录" style="ellipse;whiteSpace=wrap;html=1;fillColor=#ffe6cc;strokeColor=#d79b00;" vertex="1" parent="1">
          <mxGeometry x="1890" y="-40" width="80" height="70" as="geometry" />
        </mxCell>
        <mxCell id="roPxoz-Sqhkd76AysJlx-92" style="edgeStyle=orthogonalEdgeStyle;rounded=0;orthogonalLoop=1;jettySize=auto;html=1;exitX=0.5;exitY=0;exitDx=0;exitDy=0;entryX=0;entryY=0.5;entryDx=0;entryDy=0;" edge="1" parent="1" source="roPxoz-Sqhkd76AysJlx-89" target="roPxoz-Sqhkd76AysJlx-91">
          <mxGeometry relative="1" as="geometry" />
        </mxCell>
      </root>
    </mxGraphModel>
  </diagram>
</mxfile>
